<svg width="16" height="16" viewBox="0 0 16 16" fill="none" xmlns="http://www.w3.org/2000/svg">
  <path fill-rule="evenodd" clip-rule="evenodd" d="M8 0C3.58 0 0 3.58 0 8C0 11.54 2.29 14.63 5.47 15.75C5.88 15.82 6 15.58 6 15.38V14.09C3.92 14.59 3.39 13.41 3.39 13.41C3.04 12.5 2.5 12.27 2.5 12.27C1.74 11.77 2.56 11.78 2.56 11.78C3.41 11.85 3.83 12.67 3.83 12.67C4.6 13.98 5.91 13.6 6.45 13.41C6.52 12.87 6.74 12.5 7 12.27C5.1 12.04 3.1 11.31 3.1 8.04C3.1 7.12 3.43 6.37 3.98 5.79C3.87 5.56 3.58 4.68 4.08 3.52C4.08 3.52 4.77 3.3 6 4.23C6.65 4.07 7.35 4 8 4C8.65 4 9.35 4.07 10 4.23C11.23 3.3 11.92 3.52 11.92 3.52C12.42 4.68 12.13 5.56 12.02 5.79C12.57 6.37 12.9 7.12 12.9 8.04C12.9 11.32 10.9 12.03 9 12.27C9.3 12.52 9.6 13.02 9.6 13.8V15.38C9.6 15.58 9.72 15.82 10.13 15.75C13.31 14.63 15.6 11.54 15.6 8C16 3.58 12.42 0 8 0Z" fill="white"/>
</svg>

